<?xml version="1.0" standalone="no"?>
<!DOCTYPE svg PUBLIC "-//W3C//DTD SVG 20010904//EN"
 "http://www.w3.org/TR/2001/REC-SVG-20010904/DTD/svg10.dtd">
<svg version="1.0" xmlns="http://www.w3.org/2000/svg"
 width="1000.000000pt" height="1000.000000pt" viewBox="0 0 2000.000000 2000.000000"
 preserveAspectRatio="xMidYMid meet">

<g transform="translate(0.000000,2000.000000) scale(0.100000,-0.100000)"
fill="#000000" stroke="none">
<path d="M13943 14546 c-444 -128 -568 -167 -589 -186 -54 -50 -54 -50 -54
-575 l0 -485 -102 0 c-179 0 -284 -38 -387 -140 -106 -104 -157 -259 -133
-402 39 -234 232 -397 468 -398 196 0 365 119 441 310 15 39 18 94 23 435 l5
390 390 112 c215 62 391 113 393 113 1 0 2 -94 2 -210 l0 -210 -102 0 c-180 0
-286 -39 -388 -140 -67 -67 -115 -161 -132 -258 -24 -143 26 -297 132 -403
250 -251 676 -148 780 190 19 61 20 97 20 990 0 906 0 927 -20 959 -29 48 -76
72 -135 71 -32 -1 -247 -58 -612 -163z m450 -497 c-10 -8 -747 -219 -768 -219
-13 0 -15 20 -13 147 l3 147 390 112 390 111 3 -145 c1 -80 -1 -149 -5 -153z
m-1093 -1154 c0 -112 -13 -151 -64 -190 -49 -37 -103 -43 -158 -16 -57 28 -81
63 -86 126 -10 117 64 174 226 175 l82 0 0 -95z m1100 0 c0 -112 -13 -151 -64
-190 -49 -37 -103 -43 -158 -16 -57 28 -81 63 -86 126 -10 117 64 174 226 175
l82 0 0 -95z"/>
<path d="M8228 13450 c-57 -17 -95 -58 -108 -116 -6 -25 10 -141 56 -417 58
-350 66 -388 98 -453 56 -112 165 -203 299 -248 15 -5 17 -22 17 -164 l0 -159
-91 -8 c-166 -13 -277 -61 -379 -164 -75 -75 -123 -159 -145 -252 -45 -191 8
-383 144 -518 108 -108 207 -151 371 -160 l95 -6 6 -255 c6 -260 13 -319 58
-467 l19 -63 -87 0 c-106 0 -217 -26 -304 -72 -72 -38 -202 -162 -238 -227
-22 -41 -30 -46 -104 -71 -365 -123 -648 -430 -730 -790 -9 -41 -19 -81 -21
-87 -3 -10 -191 -13 -896 -13 -873 0 -894 -1 -926 -20 -18 -11 -41 -34 -52
-52 -20 -33 -20 -49 -18 -1598 l3 -1565 29 -53 c33 -60 76 -101 139 -134 l42
-23 4495 0 4495 0 42 23 c63 33 106 74 139 134 l29 53 3 239 3 239 -35 73 -36
72 33 68 32 69 3 635 c2 621 2 636 -18 668 -11 18 -34 41 -52 52 -32 19 -52
20 -803 20 -825 0 -828 0 -940 -51 -28 -13 -53 -25 -57 -27 -4 -2 -9 261 -11
585 -4 558 -5 592 -25 676 -29 118 -80 242 -144 345 -62 100 -214 260 -305
321 -83 55 -224 123 -304 146 -62 18 -66 21 -99 78 -43 74 -147 172 -227 215
-86 45 -198 72 -304 72 l-87 0 15 48 c48 156 55 213 62 477 l6 260 105 6 c121
8 188 29 280 90 150 101 240 271 240 454 0 241 -156 453 -386 524 -33 11 -102
22 -152 26 l-92 8 0 439 c0 505 -2 522 -80 683 -118 241 -335 397 -603 434
-93 13 -2457 14 -2499 1z m2604 -357 c184 -92 268 -241 268 -475 l0 -108
-1222 2 c-1203 3 -1224 3 -1257 23 -64 38 -70 54 -117 331 -24 143 -44 262
-44 267 0 4 514 6 1143 5 l1144 -3 85 -42z m-1799 -905 c-44 -58 -126 -158
-129 -158 -2 0 -4 38 -4 85 l0 85 71 0 c56 0 69 -3 62 -12z m1794 -331 l273
-342 0 -255 0 -255 -159 -159 -159 -159 -70 47 c-160 106 -345 173 -551 198
-77 10 -107 17 -115 30 -8 13 3 44 53 147 58 118 62 133 56 172 -5 29 -19 55
-45 83 -38 40 -40 41 -109 41 -64 0 -72 -3 -101 -30 -49 -46 -210 -375 -210
-428 l0 -42 -83 -23 c-93 -26 -232 -91 -325 -153 l-64 -42 -159 159 -159 159
0 256 0 256 273 342 272 341 555 0 555 0 272 -343z m273 258 c0 -47 -2 -85 -4
-85 -3 0 -85 100 -129 158 -7 9 6 12 62 12 l71 0 0 -85z m-2510 -780 l0 -235
-62 1 c-95 1 -163 33 -210 98 -84 118 -45 281 83 345 42 20 68 26 121 26 l68
0 0 -235z m3008 209 c140 -69 172 -245 66 -363 -52 -58 -108 -81 -196 -81
l-58 0 0 235 0 235 68 0 c53 0 79 -6 120 -26z m-1348 -944 c120 -29 269 -105
360 -185 41 -35 88 -72 104 -81 33 -19 104 -21 138 -4 12 7 74 62 137 124
l113 111 -5 -120 c-6 -141 -24 -231 -69 -352 l-33 -88 -50 -5 c-65 -7 -108
-31 -134 -73 -17 -29 -21 -50 -21 -127 l0 -93 -44 -42 c-97 -93 -257 -189
-394 -234 -125 -42 -202 -54 -352 -54 -150 0 -227 12 -352 54 -137 45 -297
141 -394 234 l-44 42 0 93 c0 77 -4 98 -21 127 -26 42 -69 66 -134 73 l-50 5
-33 88 c-45 121 -63 211 -69 352 l-5 120 113 -111 c63 -62 125 -117 137 -124
34 -17 105 -15 138 4 16 9 63 46 104 81 121 105 291 180 475 209 71 11 302 -3
385 -24z m-1350 -1447 l0 -538 -20 41 c-13 25 -35 49 -59 62 -37 21 -51 22
-279 22 l-241 0 -16 52 c-22 75 -22 611 0 686 30 99 119 182 215 201 25 5 125
9 223 10 l177 1 0 -537z m2651 511 c66 -31 114 -78 146 -142 l28 -57 0 -330 0
-330 -28 -57 c-17 -34 -46 -72 -71 -93 -72 -59 -104 -65 -327 -65 l-199 0 0
551 0 551 203 -4 c178 -3 207 -6 248 -24z m-3591 -613 c0 -137 3 -263 6 -280
l7 -31 -232 0 c-264 0 -246 -8 -212 93 42 120 92 198 191 297 81 81 202 170
232 170 5 0 8 -112 8 -249z m4170 203 c135 -83 228 -183 295 -319 77 -155 85
-203 85 -537 l0 -288 -572 0 c-554 0 -574 -1 -606 -20 -18 -11 -41 -34 -52
-52 -19 -32 -20 -52 -20 -450 l0 -418 -670 0 c-573 0 -682 -2 -748 -16 -159
-33 -304 -114 -414 -233 l-57 -61 -235 0 -236 0 0 705 0 705 90 0 c54 0 104 6
123 14 36 14 87 69 87 92 0 23 16 17 82 -32 79 -58 229 -133 333 -167 245 -80
524 -80 770 0 99 32 273 119 343 173 56 43 72 48 72 25 0 -25 61 -84 99 -96
24 -7 139 -10 346 -7 305 4 311 4 382 30 104 37 159 72 239 152 78 78 143 194
163 294 6 30 11 161 11 302 0 138 4 250 8 250 4 0 41 -21 82 -46z m-2830 -8
c381 -220 849 -247 1258 -72 46 20 113 54 150 76 38 22 71 40 75 40 4 0 7 -97
7 -216 l0 -216 -34 -47 c-44 -59 -167 -178 -228 -220 -72 -48 -204 -108 -293
-133 -66 -18 -107 -22 -235 -22 -128 0 -169 4 -235 22 -89 25 -221 85 -293
133 -61 42 -184 161 -228 220 l-34 47 0 216 c0 119 3 216 7 216 3 0 41 -20 83
-44z m-712 -1918 l2 -1098 -1495 0 -1495 0 0 1100 0 1100 1493 -2 1492 -3 3
-1097z m3922 -110 c0 -461 -3 -594 -14 -634 -33 -125 -128 -244 -237 -300
-112 -56 -54 -54 -1446 -54 l-1283 0 0 108 c0 175 37 276 137 378 29 30 81 68
114 85 119 59 102 59 1167 59 878 0 977 2 1008 16 49 23 77 68 81 128 5 65
-19 113 -73 143 -36 21 -51 23 -216 23 l-178 0 0 315 0 315 470 0 470 0 0
-582z m630 -204 l0 -317 -42 7 c-61 10 -120 38 -168 82 -178 161 -104 467 130
530 88 24 80 54 80 -302z m1258 -183 c-3 -489 -3 -500 -24 -528 -11 -15 -36
-38 -54 -50 -33 -23 -36 -23 -389 -23 -350 0 -357 1 -395 23 -78 44 -76 29
-76 584 l0 493 470 0 471 0 -3 -499z m-5172 -313 c-3 -13 -9 -83 -13 -155 l-6
-133 -154 0 -153 0 0 155 0 155 166 0 166 0 -6 -22z m3654 -70 c79 -38 156
-58 219 -58 l38 0 11 -65 c7 -35 15 -71 18 -80 5 -13 -24 -15 -246 -15 l-251
0 20 29 c30 42 101 192 101 214 0 10 3 17 8 15 4 -2 41 -20 82 -40z m1520
-693 l0 -155 -4400 0 -4400 0 0 155 0 155 4400 0 4400 0 0 -155z"/>
<path d="M9304 11556 c-85 -37 -114 -149 -59 -233 42 -63 142 -83 205 -40 55
37 75 72 75 132 0 60 -20 95 -75 133 -38 25 -98 29 -146 8z"/>
<path d="M10551 11548 c-57 -38 -76 -73 -76 -133 0 -160 208 -215 289 -76 38
66 18 157 -46 204 -16 12 -48 22 -80 25 -44 3 -59 0 -87 -20z"/>
<path d="M9599 10286 c-68 -47 -88 -135 -47 -208 28 -49 122 -97 248 -128 270
-64 631 26 666 166 10 39 -2 100 -25 132 -48 69 -130 77 -256 26 -63 -25 -82
-28 -185 -28 -103 0 -122 3 -185 29 -38 15 -95 30 -125 32 -46 3 -61 0 -91
-21z"/>
<path d="M7049 7782 c-166 -44 -296 -178 -334 -344 -38 -167 6 -320 124 -439
121 -120 291 -167 456 -124 152 40 284 170 329 324 18 61 21 174 6 238 -28
119 -123 245 -228 301 -116 62 -229 76 -353 44z m208 -323 c34 -21 73 -90 73
-130 0 -49 -42 -112 -90 -136 -55 -28 -82 -29 -136 -2 -95 45 -117 164 -46
240 56 61 128 71 199 28z"/>
<path d="M6249 12112 c-142 -48 -267 -96 -279 -107 -54 -49 -55 -55 -58 -412
l-3 -333 -88 0 c-48 0 -114 -5 -147 -11 -148 -27 -275 -125 -342 -266 -36 -77
-37 -80 -37 -198 0 -118 1 -121 37 -198 138 -288 515 -361 744 -145 59 56 93
106 127 191 21 50 22 68 27 596 l5 544 186 62 c102 34 198 70 213 80 15 10 36
36 48 58 50 99 -17 215 -129 223 -40 3 -93 -12 -304 -84z m-339 -1276 c0 -90
-3 -107 -22 -136 -47 -69 -144 -91 -208 -47 -75 51 -98 124 -61 199 33 69 75
87 194 88 l97 0 0 -104z"/>
<path d="M13472 11953 c-274 -92 -301 -107 -322 -181 -6 -22 -10 -168 -10
-354 l0 -318 -100 0 c-174 0 -271 -34 -377 -133 -260 -244 -158 -681 184 -787
40 -12 93 -20 137 -20 206 0 374 120 449 318 21 55 21 72 25 597 l3 541 190
63 c140 46 200 71 225 93 107 94 36 270 -108 267 -26 0 -145 -35 -296 -86z
m-332 -1267 c0 -90 -3 -107 -22 -136 -38 -55 -73 -75 -133 -75 -114 0 -186
112 -141 218 29 68 90 96 214 97 l82 0 0 -104z"/>
<path d="M13300 9186 c0 -52 23 -134 60 -212 31 -65 57 -99 131 -174 50 -52
98 -109 105 -127 19 -45 17 -141 -4 -180 -9 -17 -55 -72 -102 -121 -55 -57
-99 -114 -123 -159 -36 -69 -67 -172 -67 -226 l0 -28 157 3 158 3 5 35 c9 53
25 76 125 181 105 109 146 182 171 299 27 129 3 270 -69 392 -14 24 -61 80
-105 124 -92 92 -113 122 -121 172 l-6 37 -158 3 -157 3 0 -25z"/>
<path d="M14090 9172 c0 -119 62 -242 192 -379 98 -103 118 -138 118 -208 0
-70 -20 -105 -118 -208 -130 -137 -192 -260 -192 -379 l0 -38 155 0 c149 0
155 1 155 20 0 44 34 97 123 189 139 145 187 252 187 416 0 164 -48 271 -188
417 -89 94 -122 144 -122 188 0 19 -6 20 -155 20 l-155 0 0 -38z"/>
<path d="M1900 7364 c-159 -47 -200 -87 -145 -138 15 -14 57 -35 93 -47 94
-30 158 -74 198 -133 64 -96 161 -393 137 -417 -16 -16 -106 8 -808 216 -415
123 -575 161 -622 149 -26 -6 -42 -17 -50 -35 -12 -24 3 -76 164 -560 155
-469 181 -538 209 -566 25 -26 40 -33 69 -33 73 0 302 69 330 100 34 38 -17
86 -135 125 -88 29 -160 73 -190 115 -82 115 -199 471 -162 494 11 7 184 -42
692 -194 381 -114 596 -170 680 -177 58 -5 67 -3 85 16 29 33 22 79 -33 231
-55 149 -230 679 -257 778 -23 80 -49 102 -119 101 -28 0 -89 -11 -136 -25z"/>
<path d="M17960 7174 c-140 -38 -236 -141 -294 -316 -32 -93 -35 -234 -10
-388 9 -54 14 -105 11 -114 -5 -12 -20 -16 -62 -16 -111 0 -146 -33 -190 -175
-48 -155 -43 -275 11 -275 14 0 51 14 83 30 95 50 137 50 282 0 277 -94 707
-277 741 -316 10 -11 25 -51 34 -90 23 -97 30 -111 59 -130 25 -16 27 -16 54
10 58 56 210 421 219 524 l5 65 -64 -9 c-113 -16 -197 -10 -289 21 -245 81
-590 234 -662 294 -146 123 -124 455 36 538 106 56 239 28 640 -133 311 -126
347 -145 419 -226 69 -75 93 -84 131 -43 38 41 144 321 171 451 26 125 -6 143
-110 64 -65 -49 -87 -60 -123 -60 -34 0 -177 48 -361 122 -438 175 -588 210
-731 172z"/>
<path d="M3155 4726 c-38 -17 -90 -72 -105 -110 -13 -35 -5 -63 28 -98 35 -38
98 -55 226 -63 70 -4 129 -14 162 -26 132 -50 202 -218 143 -344 -29 -63 -125
-149 -189 -170 -79 -26 -89 -22 -265 119 -130 103 -250 182 -339 220 -65 28
-81 30 -181 31 -98 0 -116 -3 -166 -26 -33 -16 -84 -53 -121 -90 -83 -82 -111
-148 -111 -262 0 -72 4 -85 42 -162 62 -126 146 -200 340 -299 l151 -77 0 -96
c0 -78 4 -105 21 -141 47 -96 199 -207 276 -200 50 4 61 25 43 85 -8 26 -15
74 -15 106 l0 59 80 76 c44 43 179 158 300 257 275 224 322 272 372 371 36 74
38 83 38 173 -1 76 -6 108 -23 153 -38 95 -119 208 -221 308 -76 76 -114 105
-186 142 -144 74 -234 93 -300 64z m-181 -735 c64 -31 103 -60 160 -117 79
-79 95 -108 77 -142 -16 -30 -207 -171 -270 -200 -45 -21 -62 -24 -114 -18
-83 8 -152 43 -215 106 -95 98 -113 173 -66 268 28 56 76 100 145 132 36 17
59 20 121 17 67 -3 90 -10 162 -46z"/>
<path d="M16459 4542 c-49 -32 -110 -114 -133 -180 -9 -23 -22 -89 -31 -147
-23 -156 -19 -152 -125 -124 -111 29 -130 20 -230 -100 -77 -93 -120 -173
-127 -234 -8 -65 7 -73 106 -57 134 22 173 3 413 -207 164 -142 411 -389 434
-433 15 -28 19 -57 19 -142 0 -182 32 -180 220 13 167 171 279 303 312 365 24
46 25 54 13 69 -13 16 -28 17 -125 12 -133 -8 -201 5 -271 53 -85 58 -210 168
-318 281 -153 159 -207 282 -177 397 17 61 60 104 143 142 101 46 135 73 148
118 13 50 -1 96 -42 140 -45 47 -79 62 -136 62 -36 0 -60 -7 -93 -28z"/>
<path d="M5322 2804 c-29 -20 -28 -38 9 -130 29 -72 30 -82 21 -130 -6 -29
-32 -94 -57 -145 -52 -103 -392 -697 -522 -914 -161 -266 -263 -385 -358 -419
-27 -10 -69 -25 -93 -33 -24 -8 -46 -21 -48 -28 -15 -39 85 -120 310 -251 162
-94 235 -127 274 -122 47 6 49 28 13 137 -25 74 -32 110 -28 138 3 21 34 94
69 163 68 136 144 230 187 230 12 0 82 -40 155 -89 154 -102 255 -145 378
-161 222 -27 439 58 614 242 108 112 206 287 245 433 32 117 32 286 1 377 -46
132 -146 251 -272 320 -96 54 -158 68 -317 77 -79 4 -146 10 -149 13 -3 3 -12
34 -20 67 -24 103 -34 116 -137 166 -52 25 -125 52 -163 60 -86 18 -85 18
-112 -1z m665 -469 c125 -56 184 -150 191 -302 6 -122 -15 -205 -87 -347 -78
-153 -123 -219 -211 -307 -105 -106 -201 -153 -309 -154 -65 0 -86 5 -141 31
-36 17 -86 50 -112 73 -108 96 -127 219 -56 362 94 189 286 504 354 579 88 97
240 124 371 65z"/>
<path d="M14050 2534 c-79 -22 -232 -96 -304 -148 -156 -112 -286 -294 -286
-402 0 -75 73 -166 133 -166 76 0 121 61 162 217 33 127 57 176 107 219 103
89 244 88 340 -1 92 -86 133 -222 91 -295 -10 -16 -67 -70 -128 -120 -211
-175 -316 -299 -362 -426 -91 -250 88 -524 342 -525 173 -1 311 86 476 299 43
55 85 106 93 114 13 10 31 9 98 -9 92 -23 134 -19 210 20 87 44 188 159 188
214 0 49 -18 58 -103 50 -137 -13 -147 -3 -347 370 -63 116 -138 255 -168 310
-70 126 -152 214 -241 258 -57 28 -77 32 -156 34 -56 1 -111 -4 -145 -13z
m400 -724 c24 -24 106 -186 131 -259 23 -66 24 -106 3 -168 -36 -104 -126
-189 -245 -228 -43 -15 -57 -15 -95 -5 -64 18 -125 77 -159 151 -24 53 -27 71
-23 128 10 130 112 269 264 360 79 46 96 49 124 21z"/>
<path d="M8510 2374 c-14 -2 -44 -7 -68 -10 -41 -5 -82 -32 -82 -54 0 -5 27
-38 60 -73 70 -76 80 -98 80 -183 0 -121 -188 -1152 -276 -1512 -43 -176 -81
-237 -180 -293 -85 -48 -95 -78 -38 -111 37 -22 452 -97 583 -105 82 -5 96 -4
107 11 18 25 9 42 -57 112 -32 34 -62 74 -66 90 -24 86 3 282 132 954 142 738
195 1023 195 1055 0 58 -33 84 -125 99 -91 16 -228 26 -265 20z"/>
<path d="M11234 1570 c-283 -31 -511 -216 -608 -496 -37 -106 -50 -195 -42
-305 16 -247 89 -432 226 -570 151 -153 328 -211 565 -188 175 17 303 63 429
153 118 84 164 154 135 205 -25 44 -57 38 -177 -29 -154 -86 -200 -102 -313
-108 -164 -8 -272 30 -375 132 -75 75 -107 148 -108 248 -1 57 2 70 23 92 35
37 78 50 346 106 499 104 555 131 555 263 0 154 -111 339 -255 426 -100 61
-252 87 -401 71z m159 -188 c64 -35 132 -111 151 -170 22 -69 29 -133 17 -164
-16 -41 -70 -63 -251 -97 -91 -18 -187 -36 -213 -41 -76 -16 -152 -13 -168 6
-7 9 -15 47 -17 85 -5 89 24 187 81 271 54 79 104 114 187 133 83 18 151 11
213 -23z"/>
</g>
</svg>
