<svg xmlns="http://www.w3.org/2000/svg" version="1.1" xmlns:xlink="http://www.w3.org/1999/xlink"
    xmlns:svgjs="http://svgjs.dev/svgjs" width="1000" height="1000" viewBox="0 0 528 528">
    <g transform="matrix(0.8046875,0,0,0.8046875,12.043867868633598,12.628530708753296)">
        <svg viewBox="0 0 98 97" data-background-color="#ffffff" preserveAspectRatio="xMidYMid meet"
            height="500" width="500" xmlns="http://www.w3.org/2000/svg"
            xmlns:xlink="http://www.w3.org/1999/xlink">
            <g id="tight-bounds" transform="matrix(1,0,0,1,0.46407233620237776,0.6525260266340069)">
                <svg viewBox="0 0 95.481 95.48015475322397" height="95.48015475322397"
                    width="95.481">
                    <g>
                        <svg viewBox="0 0 95.481 95.48015475322397" height="95.48015475322397"
                            width="95.481">
                            <g>
                                <svg viewBox="0 0 95.481 95.48015475322397"
                                    height="95.48015475322397" width="95.481">
                                    <g id="textblocktransform">
                                        <svg viewBox="0 0 95.481 95.48015475322397"
                                            height="95.48015475322397" width="95.481" id="textblock">
                                            <g>
                                                <svg viewBox="0 0 95.481 95.48015475322397"
                                                    height="95.48015475322397" width="95.481">
                                                    <g>
                                                        <svg viewBox="0 0 95.481 95.48015475322397"
                                                            height="95.48015475322397"
                                                            width="95.481">
                                                            <g>
                                                                <svg
                                                                    xmlns="http://www.w3.org/2000/svg"
                                                                    viewBox="2 2.000435584826344 60.000095566788524 59.99956441517366"
                                                                    x="0" y="0"
                                                                    height="95.48015475322397"
                                                                    width="95.481"
                                                                    class="icon-icon-0"
                                                                    data-fill-palette-color="accent"
                                                                    id="icon-0">
                                                                    <g fill="#000000"
                                                                        data-fill-palette-color="accent">
                                                                        <circle cx="28" cy="23"
                                                                            r="1.0" fill="#000000"
                                                                            data-fill-palette-color="accent"></circle>
                                                                        <circle cx="36" cy="23"
                                                                            r="1.0" fill="#000000"
                                                                            data-fill-palette-color="accent"></circle>
                                                                        <path
                                                                            d="M29.553 31.9a5.5 5.5 0 0 0 4.894 0 1 1 0 1 0-0.894-1.79 3.484 3.484 0 0 1-3.106 0 1 1 0 0 0-0.894 1.79Z"
                                                                            fill="#000000"
                                                                            data-fill-palette-color="accent"></path>
                                                                        <path
                                                                            d="M17 49a3 3 0 1 0-3 3A3 3 0 0 0 17 49Zm-3 1a1 1 0 1 1 1-1A1 1 0 0 1 14 50Z"
                                                                            fill="#000000"
                                                                            data-fill-palette-color="accent"></path>
                                                                        <path
                                                                            d="M61 47H52a3.959 3.959 0 0 0-2 0.556V41a7.042 7.042 0 0 0-5.379-6.8A3.823 3.823 0 0 0 41.173 32h-0.708A8.929 8.929 0 0 0 41 29V27h0.5a3.5 3.5 0 0 0 0-7H41V15a5.006 5.006 0 0 0-5-5H21a1 1 0 0 0-0.986 1.165l0.721 4.328A2.983 2.983 0 0 0 23 17.91V20h-0.5a3.5 3.5 0 0 0 0 7H23v2a8.929 8.929 0 0 0 0.535 3H22.83a3.837 3.837 0 0 0-3.46 2.2A7.048 7.048 0 0 0 14.08 40H3a1 1 0 0 0-1 1V57a0.982 0.982 0 0 0 0.1 0.416A1.985 1.985 0 0 0 2 58v2a2 2 0 0 0 2 2H60a2 2 0 0 0 2-2V58a1.983 1.983 0 0 0-0.513-1.324A2.982 2.982 0 0 0 62 55V48A1 1 0 0 0 61 47ZM41 22h0.5a1.5 1.5 0 0 1 0 3H41ZM23 25h-0.5a1.5 1.5 0 0 1 0-3H23ZM54 54V49h6v6a1 1 0 0 1-1 1H55a1 1 0 0 1-1-1Zm-2-5v4a2 2 0 0 1 0-4Zm-3.015 6.987c0.1-0.127 0.185-0.257 0.269-0.393s0.148-0.261 0.215-0.4 0.137-0.283 0.193-0.432 0.092-0.278 0.131-0.421l0-0.011A3.968 3.968 0 0 0 52 55a2.966 2.966 0 0 0 0.184 1H48.976ZM45 39.173V36.444A5.017 5.017 0 0 1 48 41v3H41a1 1 0 0 0-1 1v5H32a4.991 4.991 0 0 0-4 2H25V43h1a0.987 0.987 0 0 0 0.962-0.81 7.916 7.916 0 0 0 10.076 0A0.987 0.987 0 0 0 38 43h3.173A3.832 3.832 0 0 0 45 39.173ZM44 50H42V46h6v7a3 3 0 0 1-0.049 0.486 2.964 2.964 0 0 1-0.086 0.355c-0.02 0.068-0.038 0.136-0.062 0.2a3.093 3.093 0 0 1-0.134 0.3c-0.034 0.068-0.07 0.136-0.109 0.2a3.089 3.089 0 0 1-0.179 0.261c-0.046 0.061-0.095 0.12-0.145 0.177a3.173 3.173 0 0 1-0.222 0.227c-0.056 0.051-0.115 0.1-0.174 0.144a3.122 3.122 0 0 1-0.258 0.186c-0.068 0.043-0.14 0.078-0.211 0.115a2.855 2.855 0 0 1-0.273 0.132 2.769 2.769 0 0 1-0.285 0.089c-0.081 0.023-0.16 0.052-0.244 0.069A3.049 3.049 0 0 1 45 56H29V55a3.009 3.009 0 0 1 3-3H44a1 1 0 0 0 0-2ZM27.111 54A5 5 0 0 0 27 55v1H25V54ZM28.48 18h7.04L39 22.35v3.236L36.956 27.63a7.757 7.757 0 0 0-4.52-1.608l-0.219-0.219 0.678-1.356a1 1 0 0 0-1.79-0.894l-1 2a0.992 0.992 0 0 0-0.069 0.678 7.741 7.741 0 0 0-2.992 1.4L25 25.586V22.35ZM25 19.149V18h0.919ZM38.081 18H39v1.149ZM26.293 29.707a1 1 0 0 0 1.414 0A5.789 5.789 0 0 1 31.829 28h0.342a5.789 5.789 0 0 1 4.122 1.707 1 1 0 0 0 1.414 0L39 28.414V29a6.9 6.9 0 0 1-0.7 3H38a1 1 0 0 0-1 1v0.878c-0.122 0.126-0.24 0.256-0.371 0.371a7 7 0 0 1-9.258 0c-0.131-0.116-0.249-0.246-0.371-0.372V33a1 1 0 0 0-1-1h-0.3a6.9 6.9 0 0 1-0.7-3v-0.586ZM37 36.47v2.823a5.971 5.971 0 0 1-10 0V36.47a8.935 8.935 0 0 0 10 0ZM41.173 34A1.83 1.83 0 0 1 43 35.827v3.346A1.83 1.83 0 0 1 41.173 41H39V34ZM22.708 15.164L22.181 12H36a3 3 0 0 1 3 3v1H23.694A1 1 0 0 1 22.708 15.164ZM21 35.83a1.785 1.785 0 0 1 0.073-0.493A1.83 1.83 0 0 1 22.83 34H25v7a1 1 0 0 0-1-1H21.21a1.79 1.79 0 0 1-0.21-0.83Zm-2 0.614V39.17a3.787 3.787 0 0 0 0.1 0.83H16.111A5.03 5.03 0 0 1 19 36.444ZM4 42H23V56H4ZM4 60V58H60v2Z"
                                                                            fill="#000000"
                                                                            data-fill-palette-color="accent"></path>
                                                                        <path
                                                                            d="M53 45h2c0-0.562 0.217-0.8 0.707-1.293a3.48 3.48 0 0 0 0-5.414C55.217 37.8 55 37.562 55 37H53a3.563 3.563 0 0 0 1.293 2.707c0.49 0.49 0.707 0.731 0.707 1.293s-0.217 0.8-0.707 1.293A3.563 3.563 0 0 0 53 45Z"
                                                                            fill="#000000"
                                                                            data-fill-palette-color="accent"></path>
                                                                        <path
                                                                            d="M60 37H58a3.563 3.563 0 0 0 1.293 2.707c0.49 0.49 0.707 0.731 0.707 1.293s-0.217 0.8-0.707 1.293A3.563 3.563 0 0 0 58 45h2c0-0.562 0.217-0.8 0.707-1.293a3.48 3.48 0 0 0 0-5.414C60.217 37.8 60 37.562 60 37Z"
                                                                            fill="#000000"
                                                                            data-fill-palette-color="accent"></path>
                                                                        <path
                                                                            d="M60.725 2.039l-7 2A1 1 0 0 0 53 5v6H52a3 3 0 1 0 3 3V9.754l5-1.428V11H59a3 3 0 1 0 3 3V3a1 1 0 0 0-1.275-0.961ZM53 14a1 1 0 1 1-1-1h1Zm7 0a1 1 0 1 1-1-1h1Zm0-9V6.246L55 7.674V5.754l5-1.428Z"
                                                                            fill="#000000"
                                                                            data-fill-palette-color="accent"></path>
                                                                        <path
                                                                            d="M5 30a3 3 0 0 0 3-3V20.721l2.316-0.772a1 1 0 1 0-0.632-1.9l-3 1A1 1 0 0 0 6 20v4H5a3 3 0 0 0 0 6Zm0-4H6v1a1 1 0 1 1-1-1Z"
                                                                            fill="#000000"
                                                                            data-fill-palette-color="accent"></path>
                                                                        <path
                                                                            d="M51 31a3 3 0 0 0 3-3V21.721l2.316-0.772a1 1 0 1 0-0.632-1.9l-3 1A1 1 0 0 0 52 21v4H51a3 3 0 0 0 0 6Zm0-4h1v1a1 1 0 1 1-1-1Z"
                                                                            fill="#000000"
                                                                            data-fill-palette-color="accent"></path>
                                                                    </g>
                                                                </svg>
                                                            </g>
                                                        </svg>
                                                    </g>
                                                </svg>
                                            </g>
                                        </svg>
                                    </g>
                                </svg>
                            </g>
                        </svg>
                    </g>
                    <defs></defs>
                </svg>
                <rect width="95.481" height="95.48015475322397" fill="none" stroke="none"
                    visibility="hidden"></rect>
            </g>
        </svg>
    </g>
</svg>