<?xml version="1.0" standalone="no"?>
<!DOCTYPE svg PUBLIC "-//W3C//DTD SVG 20010904//EN" "http://www.w3.org/TR/2001/REC-SVG-20010904/DTD/svg10.dtd">
<svg version="1.0" xmlns="http://www.w3.org/2000/svg"
    width="256.000000pt" height="256.000000pt" viewBox="0 0 256.000000 256.000000"
    preserveAspectRatio="xMidYMid meet">

    <g transform="translate(0.000000,256.000000) scale(0.100000,-0.100000)"
        fill="#000000" stroke="none">
        <path
            d="M670 1405 c-7 -9 -9 -26 -5 -45 5 -22 2 -37 -9 -49 -16 -17 -16 -19
0 -25 13 -5 15 -14 10 -47 -7 -46 5 -69 37 -69 19 0 19 1 3 18 -12 14 -14 28
-10 52 5 25 3 36 -10 45 -15 12 -15 13 0 19 13 5 15 15 10 50 -6 37 -4 46 11
55 17 10 16 10 -3 11 -12 0 -27 -7 -34 -15z" />
        <path
            d="M874 1402 c11 -13 14 -28 10 -50 -4 -19 -2 -38 5 -46 9 -11 9 -16 1
-21 -8 -5 -10 -22 -5 -50 5 -36 3 -45 -12 -54 -17 -10 -16 -10 3 -11 33 0 47
24 39 70 -6 33 -4 41 11 47 16 6 16 7 -1 19 -14 10 -16 22 -12 50 7 42 -5 64
-36 64 -19 0 -19 -1 -3 -18z" />
        <path
            d="M1426 1369 c-4 -24 -12 -66 -18 -92 -7 -35 -7 -52 1 -60 16 -16 20
-7 39 82 15 74 15 82 0 97 -15 15 -16 13 -22 -27z" />
        <path
            d="M1033 1334 c-21 -9 -2 -34 26 -35 25 0 25 -1 6 -14 -60 -42 -60 -42
-46 -59 14 -16 56 -21 85 -10 27 10 18 24 -16 24 l-32 0 34 29 c29 25 33 32
24 48 -11 17 -57 27 -81 17z" />
        <path
            d="M1181 1323 c-32 -28 -52 -73 -40 -95 11 -20 44 -24 54 -8 5 8 11 8
20 0 17 -14 22 -4 31 50 6 35 4 45 -11 57 -24 17 -29 17 -54 -4z m34 -42 c-8
-25 -45 -49 -45 -29 0 13 41 60 48 54 2 -3 1 -14 -3 -25z" />
        <path
            d="M1270 1263 c-18 -95 -18 -105 -4 -110 6 -2 14 10 17 27 4 19 13 30
23 30 17 0 84 62 84 78 0 5 -8 20 -18 32 -15 19 -22 21 -40 11 -13 -7 -23 -8
-27 -1 -14 22 -22 7 -35 -67z m80 23 c0 -15 -40 -49 -48 -41 -7 7 27 55 38 55
6 0 10 -6 10 -14z" />
        <path
            d="M1495 1315 c-27 -26 -33 -73 -13 -93 16 -16 50 -15 74 3 18 13 17 14
-18 15 -21 0 -38 5 -38 10 0 6 9 10 21 10 28 0 59 18 59 34 0 16 -32 46 -49
46 -6 0 -23 -11 -36 -25z m44 -26 c-22 -14 -33 -10 -19 6 7 8 17 12 22 9 6 -4
5 -10 -3 -15z" />
        <path
            d="M1625 1316 c-33 -33 -42 -73 -21 -94 13 -14 20 -14 36 -5 12 8 21 9
25 3 13 -21 23 -8 30 40 11 78 -22 104 -70 56z m31 -51 c-16 -25 -36 -33 -36
-16 0 4 10 21 22 36 26 33 38 16 14 -20z" />
        <path
            d="M1730 1310 c0 -14 -3 -42 -7 -64 -8 -53 16 -45 35 12 7 23 22 47 33
52 31 17 22 29 -21 27 -36 -1 -40 -4 -40 -27z" />
        <path
            d="M1819 1308 c0 -18 -4 -42 -8 -53 -5 -11 -6 -26 -4 -32 9 -25 33 -13
53 26 35 69 48 59 26 -19 0 -3 4 -7 9 -9 13 -5 35 38 35 70 0 15 -7 33 -16 40
-14 12 -19 10 -39 -15 -23 -29 -23 -29 -27 -6 -5 38 -28 37 -29 -2z" />
        <path
            d="M717 1323 c-14 -13 -6 -25 8 -13 12 10 18 10 30 0 9 -7 15 -8 15 -2
0 16 -40 28 -53 15z" />
        <path
            d="M817 1324 c-14 -15 -6 -26 9 -13 13 10 17 10 26 -2 8 -12 9 -12 5 1
-4 16 -29 25 -40 14z" />
        <path
            d="M773 1253 c16 -16 18 -16 35 2 16 18 16 18 -2 4 -15 -11 -20 -11 -23
-1 -3 6 -10 12 -16 12 -6 0 -4 -8 6 -17z" />
    </g>
</svg>